<mxfile host="Electron" modified="2024-02-13T19:48:48.903Z" agent="Mozilla/5.0 (Windows NT 10.0; Win64; x64) AppleWebKit/537.36 (KHTML, like Gecko) draw.io/23.0.2 Chrome/120.0.6099.109 Electron/28.1.0 Safari/537.36" etag="XrtFtslrnNvQq_0hJ2QI" version="23.0.2" type="device">
  <diagram id="R2lEEEUBdFMjLlhIrx00" name="Page-1">
    <mxGraphModel dx="1674" dy="844" grid="1" gridSize="10" guides="1" tooltips="1" connect="1" arrows="1" fold="1" page="1" pageScale="1" pageWidth="850" pageHeight="1100" math="0" shadow="0" extFonts="Permanent Marker^https://fonts.googleapis.com/css?family=Permanent+Marker">
      <root>
        <mxCell id="0" />
        <mxCell id="1" parent="0" />
        <mxCell id="JWzY8mYb1t7y9asPk0bc-1" value="" style="rounded=0;whiteSpace=wrap;html=1;" vertex="1" parent="1">
          <mxGeometry x="330" width="1040" height="640" as="geometry" />
        </mxCell>
        <mxCell id="hs9dy532DAl7WxeDddr7-1" value="LIBRO" style="whiteSpace=wrap;html=1;align=center;fillColor=#dae8fc;strokeColor=#6c8ebf;" parent="1" vertex="1">
          <mxGeometry x="540" y="350" width="100" height="40" as="geometry" />
        </mxCell>
        <mxCell id="hs9dy532DAl7WxeDddr7-2" value="EDITORIAL" style="whiteSpace=wrap;html=1;align=center;fillColor=#dae8fc;strokeColor=#6c8ebf;" parent="1" vertex="1">
          <mxGeometry x="1020" y="350" width="100" height="40" as="geometry" />
        </mxCell>
        <mxCell id="hs9dy532DAl7WxeDddr7-3" value="Publicación" style="shape=rhombus;perimeter=rhombusPerimeter;whiteSpace=wrap;html=1;align=center;fillColor=#d5e8d4;strokeColor=#82b366;" parent="1" vertex="1">
          <mxGeometry x="800" y="340" width="100" height="60" as="geometry" />
        </mxCell>
        <mxCell id="u-gpMH5E70NTN4DjZdiw-9" value="" style="edgeStyle=none;shape=connector;rounded=0;orthogonalLoop=1;jettySize=auto;html=1;labelBackgroundColor=default;strokeColor=default;align=center;verticalAlign=middle;fontFamily=Helvetica;fontSize=11;fontColor=default;endArrow=none;" parent="1" source="hs9dy532DAl7WxeDddr7-4" target="hs9dy532DAl7WxeDddr7-1" edge="1">
          <mxGeometry relative="1" as="geometry" />
        </mxCell>
        <mxCell id="hs9dy532DAl7WxeDddr7-4" value="Título" style="ellipse;whiteSpace=wrap;html=1;align=center;fillColor=#f8cecc;strokeColor=#b85450;" parent="1" vertex="1">
          <mxGeometry x="400" y="350" width="100" height="40" as="geometry" />
        </mxCell>
        <mxCell id="u-gpMH5E70NTN4DjZdiw-13" style="edgeStyle=none;shape=connector;rounded=0;orthogonalLoop=1;jettySize=auto;html=1;labelBackgroundColor=default;strokeColor=default;align=center;verticalAlign=middle;fontFamily=Helvetica;fontSize=11;fontColor=default;endArrow=none;" parent="1" source="hs9dy532DAl7WxeDddr7-5" target="hs9dy532DAl7WxeDddr7-1" edge="1">
          <mxGeometry relative="1" as="geometry" />
        </mxCell>
        <mxCell id="hs9dy532DAl7WxeDddr7-5" value="Autor" style="ellipse;whiteSpace=wrap;html=1;align=center;fillColor=#f8cecc;strokeColor=#b85450;" parent="1" vertex="1">
          <mxGeometry x="540" y="430" width="100" height="40" as="geometry" />
        </mxCell>
        <mxCell id="u-gpMH5E70NTN4DjZdiw-15" style="edgeStyle=none;shape=connector;rounded=0;orthogonalLoop=1;jettySize=auto;html=1;labelBackgroundColor=default;strokeColor=default;align=center;verticalAlign=middle;fontFamily=Helvetica;fontSize=11;fontColor=default;endArrow=none;" parent="1" source="hs9dy532DAl7WxeDddr7-7" target="hs9dy532DAl7WxeDddr7-1" edge="1">
          <mxGeometry relative="1" as="geometry" />
        </mxCell>
        <mxCell id="hs9dy532DAl7WxeDddr7-7" value="Fecha de publicación" style="ellipse;whiteSpace=wrap;html=1;align=center;fillColor=#f8cecc;strokeColor=#b85450;" parent="1" vertex="1">
          <mxGeometry x="650" y="290" width="100" height="40" as="geometry" />
        </mxCell>
        <mxCell id="u-gpMH5E70NTN4DjZdiw-12" style="edgeStyle=none;shape=connector;rounded=0;orthogonalLoop=1;jettySize=auto;html=1;labelBackgroundColor=default;strokeColor=default;align=center;verticalAlign=middle;fontFamily=Helvetica;fontSize=11;fontColor=default;endArrow=none;" parent="1" source="hs9dy532DAl7WxeDddr7-8" target="hs9dy532DAl7WxeDddr7-1" edge="1">
          <mxGeometry relative="1" as="geometry" />
        </mxCell>
        <mxCell id="hs9dy532DAl7WxeDddr7-8" value="ISBN" style="ellipse;whiteSpace=wrap;html=1;align=center;fontStyle=4;fillColor=#e1d5e7;strokeColor=#9673a6;" parent="1" vertex="1">
          <mxGeometry x="430" y="410" width="100" height="40" as="geometry" />
        </mxCell>
        <mxCell id="hs9dy532DAl7WxeDddr7-16" style="edgeStyle=orthogonalEdgeStyle;rounded=0;orthogonalLoop=1;jettySize=auto;html=1;exitX=0.5;exitY=1;exitDx=0;exitDy=0;" parent="1" source="hs9dy532DAl7WxeDddr7-7" target="hs9dy532DAl7WxeDddr7-7" edge="1">
          <mxGeometry relative="1" as="geometry" />
        </mxCell>
        <mxCell id="u-gpMH5E70NTN4DjZdiw-14" style="edgeStyle=none;shape=connector;rounded=0;orthogonalLoop=1;jettySize=auto;html=1;labelBackgroundColor=default;strokeColor=default;align=center;verticalAlign=middle;fontFamily=Helvetica;fontSize=11;fontColor=default;endArrow=none;" parent="1" source="hs9dy532DAl7WxeDddr7-17" target="hs9dy532DAl7WxeDddr7-1" edge="1">
          <mxGeometry relative="1" as="geometry" />
        </mxCell>
        <mxCell id="hs9dy532DAl7WxeDddr7-17" value="Género" style="ellipse;whiteSpace=wrap;html=1;align=center;fillColor=#f8cecc;strokeColor=#b85450;" parent="1" vertex="1">
          <mxGeometry x="650" y="410" width="100" height="40" as="geometry" />
        </mxCell>
        <mxCell id="u-gpMH5E70NTN4DjZdiw-18" style="edgeStyle=none;shape=connector;rounded=0;orthogonalLoop=1;jettySize=auto;html=1;labelBackgroundColor=default;strokeColor=default;align=center;verticalAlign=middle;fontFamily=Helvetica;fontSize=11;fontColor=default;endArrow=none;" parent="1" source="hs9dy532DAl7WxeDddr7-22" target="hs9dy532DAl7WxeDddr7-2" edge="1">
          <mxGeometry relative="1" as="geometry" />
        </mxCell>
        <mxCell id="hs9dy532DAl7WxeDddr7-22" value="NombreEmpresa" style="ellipse;whiteSpace=wrap;html=1;align=center;fillColor=#f8cecc;strokeColor=#b85450;" parent="1" vertex="1">
          <mxGeometry x="1150" y="320" width="100" height="40" as="geometry" />
        </mxCell>
        <mxCell id="u-gpMH5E70NTN4DjZdiw-19" style="edgeStyle=none;shape=connector;rounded=0;orthogonalLoop=1;jettySize=auto;html=1;labelBackgroundColor=default;strokeColor=default;align=center;verticalAlign=middle;fontFamily=Helvetica;fontSize=11;fontColor=default;endArrow=none;" parent="1" source="hs9dy532DAl7WxeDddr7-24" target="hs9dy532DAl7WxeDddr7-2" edge="1">
          <mxGeometry relative="1" as="geometry" />
        </mxCell>
        <mxCell id="hs9dy532DAl7WxeDddr7-24" value="Dirección" style="ellipse;whiteSpace=wrap;html=1;align=center;fillColor=#f8cecc;strokeColor=#b85450;" parent="1" vertex="1">
          <mxGeometry x="1150" y="390" width="100" height="40" as="geometry" />
        </mxCell>
        <mxCell id="u-gpMH5E70NTN4DjZdiw-8" value="" style="edgeStyle=none;shape=connector;rounded=0;orthogonalLoop=1;jettySize=auto;html=1;labelBackgroundColor=default;strokeColor=default;align=center;verticalAlign=middle;fontFamily=Helvetica;fontSize=11;fontColor=default;endArrow=none;" parent="1" source="hs9dy532DAl7WxeDddr7-25" target="hs9dy532DAl7WxeDddr7-36" edge="1">
          <mxGeometry relative="1" as="geometry" />
        </mxCell>
        <mxCell id="hs9dy532DAl7WxeDddr7-25" value="FormatoEdición" style="ellipse;whiteSpace=wrap;html=1;align=center;fillColor=#f8cecc;strokeColor=#b85450;" parent="1" vertex="1">
          <mxGeometry x="490" y="210" width="100" height="40" as="geometry" />
        </mxCell>
        <mxCell id="u-gpMH5E70NTN4DjZdiw-16" style="edgeStyle=none;shape=connector;rounded=0;orthogonalLoop=1;jettySize=auto;html=1;labelBackgroundColor=default;strokeColor=default;align=center;verticalAlign=middle;fontFamily=Helvetica;fontSize=11;fontColor=default;endArrow=none;" parent="1" source="hs9dy532DAl7WxeDddr7-29" target="hs9dy532DAl7WxeDddr7-1" edge="1">
          <mxGeometry relative="1" as="geometry" />
        </mxCell>
        <mxCell id="hs9dy532DAl7WxeDddr7-29" value="Lugar de publicación" style="ellipse;whiteSpace=wrap;html=1;align=center;fillColor=#f8cecc;strokeColor=#b85450;" parent="1" vertex="1">
          <mxGeometry x="540" y="270" width="100" height="40" as="geometry" />
        </mxCell>
        <mxCell id="hs9dy532DAl7WxeDddr7-30" value="TelefonoContacto" style="ellipse;whiteSpace=wrap;html=1;align=center;fillColor=#f8cecc;strokeColor=#b85450;" parent="1" vertex="1">
          <mxGeometry x="1140" y="470" width="100" height="40" as="geometry" />
        </mxCell>
        <mxCell id="hs9dy532DAl7WxeDddr7-31" value="NombreContacto" style="ellipse;whiteSpace=wrap;html=1;align=center;fillColor=#f8cecc;strokeColor=#b85450;" parent="1" vertex="1">
          <mxGeometry x="1020" y="490" width="100" height="40" as="geometry" />
        </mxCell>
        <mxCell id="hs9dy532DAl7WxeDddr7-32" value="EmailContacto" style="ellipse;whiteSpace=wrap;html=1;align=center;fillColor=#f8cecc;strokeColor=#b85450;" parent="1" vertex="1">
          <mxGeometry x="900" y="470" width="100" height="40" as="geometry" />
        </mxCell>
        <mxCell id="u-gpMH5E70NTN4DjZdiw-7" value="" style="edgeStyle=none;shape=connector;rounded=0;orthogonalLoop=1;jettySize=auto;html=1;labelBackgroundColor=default;strokeColor=default;align=center;verticalAlign=middle;fontFamily=Helvetica;fontSize=11;fontColor=default;endArrow=none;" parent="1" source="hs9dy532DAl7WxeDddr7-34" target="hs9dy532DAl7WxeDddr7-36" edge="1">
          <mxGeometry relative="1" as="geometry" />
        </mxCell>
        <mxCell id="hs9dy532DAl7WxeDddr7-34" value="NúmeroEdición" style="ellipse;whiteSpace=wrap;html=1;align=center;fillColor=#f8cecc;strokeColor=#b85450;" parent="1" vertex="1">
          <mxGeometry x="370" y="210" width="100" height="40" as="geometry" />
        </mxCell>
        <mxCell id="u-gpMH5E70NTN4DjZdiw-10" value="" style="edgeStyle=none;shape=connector;rounded=0;orthogonalLoop=1;jettySize=auto;html=1;labelBackgroundColor=default;strokeColor=default;align=center;verticalAlign=middle;fontFamily=Helvetica;fontSize=11;fontColor=default;endArrow=none;" parent="1" source="hs9dy532DAl7WxeDddr7-36" target="hs9dy532DAl7WxeDddr7-1" edge="1">
          <mxGeometry relative="1" as="geometry" />
        </mxCell>
        <mxCell id="hs9dy532DAl7WxeDddr7-36" value="Edición&lt;br&gt;" style="ellipse;shape=doubleEllipse;margin=3;whiteSpace=wrap;html=1;align=center;fillColor=#bac8d3;strokeColor=#23445d;" parent="1" vertex="1">
          <mxGeometry x="430" y="290" width="100" height="40" as="geometry" />
        </mxCell>
        <mxCell id="u-gpMH5E70NTN4DjZdiw-20" style="edgeStyle=none;shape=connector;rounded=0;orthogonalLoop=1;jettySize=auto;html=1;labelBackgroundColor=default;strokeColor=default;align=center;verticalAlign=middle;fontFamily=Helvetica;fontSize=11;fontColor=default;endArrow=none;" parent="1" source="hs9dy532DAl7WxeDddr7-41" target="hs9dy532DAl7WxeDddr7-2" edge="1">
          <mxGeometry relative="1" as="geometry" />
        </mxCell>
        <mxCell id="u-gpMH5E70NTN4DjZdiw-21" style="edgeStyle=none;shape=connector;rounded=0;orthogonalLoop=1;jettySize=auto;html=1;labelBackgroundColor=default;strokeColor=default;align=center;verticalAlign=middle;fontFamily=Helvetica;fontSize=11;fontColor=default;endArrow=none;" parent="1" source="hs9dy532DAl7WxeDddr7-41" target="hs9dy532DAl7WxeDddr7-31" edge="1">
          <mxGeometry relative="1" as="geometry" />
        </mxCell>
        <mxCell id="u-gpMH5E70NTN4DjZdiw-22" style="edgeStyle=none;shape=connector;rounded=0;orthogonalLoop=1;jettySize=auto;html=1;labelBackgroundColor=default;strokeColor=default;align=center;verticalAlign=middle;fontFamily=Helvetica;fontSize=11;fontColor=default;endArrow=none;" parent="1" source="hs9dy532DAl7WxeDddr7-41" target="hs9dy532DAl7WxeDddr7-30" edge="1">
          <mxGeometry relative="1" as="geometry" />
        </mxCell>
        <mxCell id="u-gpMH5E70NTN4DjZdiw-23" style="edgeStyle=none;shape=connector;rounded=0;orthogonalLoop=1;jettySize=auto;html=1;labelBackgroundColor=default;strokeColor=default;align=center;verticalAlign=middle;fontFamily=Helvetica;fontSize=11;fontColor=default;endArrow=none;" parent="1" source="hs9dy532DAl7WxeDddr7-41" target="hs9dy532DAl7WxeDddr7-32" edge="1">
          <mxGeometry relative="1" as="geometry" />
        </mxCell>
        <mxCell id="hs9dy532DAl7WxeDddr7-41" value="Contacto" style="ellipse;shape=doubleEllipse;margin=3;whiteSpace=wrap;html=1;align=center;fillColor=#bac8d3;strokeColor=#23445d;" parent="1" vertex="1">
          <mxGeometry x="1020" y="430" width="100" height="40" as="geometry" />
        </mxCell>
        <mxCell id="u-gpMH5E70NTN4DjZdiw-17" style="edgeStyle=none;shape=connector;rounded=0;orthogonalLoop=1;jettySize=auto;html=1;labelBackgroundColor=default;strokeColor=default;align=center;verticalAlign=middle;fontFamily=Helvetica;fontSize=11;fontColor=default;endArrow=none;" parent="1" source="hs9dy532DAl7WxeDddr7-45" target="hs9dy532DAl7WxeDddr7-2" edge="1">
          <mxGeometry relative="1" as="geometry" />
        </mxCell>
        <mxCell id="hs9dy532DAl7WxeDddr7-45" value="ID_Editorial" style="ellipse;whiteSpace=wrap;html=1;align=center;fontStyle=4;fillColor=#e1d5e7;strokeColor=#9673a6;" parent="1" vertex="1">
          <mxGeometry x="1020" y="270" width="100" height="40" as="geometry" />
        </mxCell>
        <mxCell id="u-gpMH5E70NTN4DjZdiw-25" value="" style="edgeStyle=entityRelationEdgeStyle;fontSize=12;html=1;endArrow=ERoneToMany;startArrow=ERmandOne;rounded=0;labelBackgroundColor=default;strokeColor=default;align=center;verticalAlign=middle;fontFamily=Helvetica;fontColor=default;shape=connector;" parent="1" source="hs9dy532DAl7WxeDddr7-3" target="hs9dy532DAl7WxeDddr7-1" edge="1">
          <mxGeometry width="100" height="100" relative="1" as="geometry">
            <mxPoint x="580" y="590" as="sourcePoint" />
            <mxPoint x="680" y="490" as="targetPoint" />
          </mxGeometry>
        </mxCell>
        <mxCell id="u-gpMH5E70NTN4DjZdiw-27" value="" style="edgeStyle=entityRelationEdgeStyle;fontSize=12;html=1;endArrow=ERmandOne;startArrow=ERmandOne;rounded=0;labelBackgroundColor=default;strokeColor=default;align=center;verticalAlign=middle;fontFamily=Helvetica;fontColor=default;shape=connector;" parent="1" source="hs9dy532DAl7WxeDddr7-2" target="hs9dy532DAl7WxeDddr7-3" edge="1">
          <mxGeometry width="100" height="100" relative="1" as="geometry">
            <mxPoint x="740" y="380" as="sourcePoint" />
            <mxPoint x="840" y="280" as="targetPoint" />
          </mxGeometry>
        </mxCell>
        <mxCell id="9D-R15pIJNWMQTiF0cq5-30" value="&lt;font style=&quot;font-size: 20px;&quot;&gt;BIBLIOTECA&lt;/font&gt;" style="rounded=0;whiteSpace=wrap;html=1;" parent="1" vertex="1">
          <mxGeometry x="785" y="40" width="130" height="50" as="geometry" />
        </mxCell>
      </root>
    </mxGraphModel>
  </diagram>
</mxfile>
